<?xml version="1.0" encoding="UTF-8"?>
<!-- Generator: visioncortex VTracer 0.6.4 -->
<svg version="1.1" xmlns="http://www.w3.org/2000/svg" width="2048" height="2048">
<path d="M0 0 C0.9834137 0.00021149 1.96682739 0.00042297 2.9800415 0.00064087 C22.12873897 0.04167574 39.40404299 1.78158059 57.46484375 8.421875 C60.7139321 9.3828175 63.13718318 9.54337469 66.5 9.375 C71.54033664 9.12555102 74.17343457 10.42487273 78.4921875 12.8828125 C82.91421149 14.94786527 87.48412517 16.11007259 92.1875 17.375 C108.57015068 21.88877721 108.57015068 21.88877721 112.6875 25.375 C114.0625 29.0625 114.0625 29.0625 114.6875 32.375 C116.47112469 33.42149462 116.47112469 33.42149462 118.6875 34.375 C120.39377635 35.57796631 122.07954183 36.81027141 123.75 38.0625 C130.82754443 43.26713041 138.18914588 47.90937053 145.75 52.375 C153.80744645 57.20691804 160.80548608 62.23799437 167.31640625 69.0390625 C170.73958788 72.41148856 174.49932652 75.30717425 178.3046875 78.234375 C182.74397037 82.22245207 184.18963394 86.5798752 185.6484375 92.19140625 C187.04538736 95.12710163 189.14421929 96.38543656 191.6875 98.375 C193.390625 100.75 193.390625 100.75 194.9375 103.375 C198.28425713 108.86427273 202.02029019 113.87736337 205.96484375 118.94140625 C207.6875 121.375 207.6875 121.375 207.6875 123.375 C208.3475 123.375 209.0075 123.375 209.6875 123.375 C212.6875 126.83653846 212.6875 126.83653846 212.6875 129.375 C213.3475 129.375 214.0075 129.375 214.6875 129.375 C214.6875 130.035 214.6875 130.695 214.6875 131.375 C215.3475 131.375 216.0075 131.375 216.6875 131.375 C218.0546875 133.28125 218.0546875 133.28125 219.5625 135.875 C220.09359375 136.78636719 220.6246875 137.69773437 221.171875 138.63671875 C222.77799255 141.53849299 224.25815918 144.47058992 225.6328125 147.48828125 C227.04619136 150.01665899 228.87243603 152.11852301 230.6875 154.375 C231.75837957 155.9743913 232.82888593 157.5741003 233.88452148 159.18359375 C237.9808097 165.49050326 237.9808097 165.49050326 243.625 170.375 C246.89165514 172.50832581 247.73249028 173.66107333 248.6875 177.375 C249.6775 177.375 250.6675 177.375 251.6875 177.375 C252.01363281 178.06207031 252.33976562 178.74914062 252.67578125 179.45703125 C253.33126953 180.80861328 253.33126953 180.80861328 254 182.1875 C254.42925781 183.08082031 254.85851563 183.97414063 255.30078125 184.89453125 C256.52356266 187.3578632 256.52356266 187.3578632 258.23046875 188.87890625 C260.18462995 190.88545783 260.78462577 192.85909287 261.6875 195.5 C262.02652344 196.47582031 262.36554687 197.45164062 262.71484375 198.45703125 C263.81649161 201.76197483 264.89108941 205.07527156 265.9609375 208.390625 C266.71789594 210.61377544 266.71789594 210.61377544 268.375 213.4375 C271.3916623 220.18907752 269.33412975 226.53568038 267.44140625 233.34765625 C265.63594848 240.59755144 265.53435911 247.63799613 265.5625 255.0625 C265.55863281 256.09439453 265.55476563 257.12628906 265.55078125 258.18945312 C265.55207031 259.18267578 265.55335938 260.17589844 265.5546875 261.19921875 C265.55581543 262.09729248 265.55694336 262.99536621 265.55810547 263.9206543 C265.67958704 266.22490761 266.09016889 268.15696056 266.6875 270.375 C266.83703098 272.62350294 266.95928342 274.87389553 267.0625 277.125 C267.54325517 286.37438939 267.54325517 286.37438939 272.37109375 293.9765625 C273.60598047 294.97782201 274.84802543 295.97032867 276.09765625 296.953125 C278.58669092 299.17919041 279.166226 301.11703753 279.6875 304.375 C279.73448739 308.41591593 279.46893329 311.49588755 276.6875 314.625 C276.0275 315.2025 275.3675 315.78 274.6875 316.375 C273.54391733 319.63904232 273.52043476 322.84967793 273.44140625 326.28515625 C273.40853516 327.44080078 273.37566406 328.59644531 273.34179688 329.78710938 C273.28128856 332.19328064 273.22392262 334.59953327 273.16992188 337.00585938 C272.69643116 353.14921253 269.48866739 364.48636127 259.6875 377.375 C259.12933594 378.13554688 258.57117187 378.89609375 257.99609375 379.6796875 C254.25631613 384.41731762 251.40489317 386.09242729 245.609375 387.609375 C242.56004529 388.82414862 242.06415746 391.50696362 240.6875 394.375 C235.26298177 398.68766046 230.5015294 400.06795214 223.6875 399.375 C221.1875 398.875 221.1875 398.875 219.6875 398.375 C219.39875 399.509375 219.11 400.64375 218.8125 401.8125 C218.44125 402.988125 218.07 404.16375 217.6875 405.375 C216.6975 405.87 216.6975 405.87 215.6875 406.375 C216.50704776 413.17940314 217.46918929 419.76473056 219.25878906 426.37524414 C221.49820252 434.71577564 222.02981797 442.34602361 221.53955078 450.98071289 C221.2372507 458.44347484 223.03391477 464.27915056 227.9375 470 C229.6875 472.375 229.6875 472.375 230.3125 475.5 C229.15760574 482.66034443 225.03400371 488.64351639 220.8125 494.4375 C218.49212674 497.04081834 218.49212674 497.04081834 218.6875 499.375 C222.18122782 501.96754196 225.96007835 504.13565754 229.6875 506.375 C230.93660156 507.13490234 230.93660156 507.13490234 232.2109375 507.91015625 C236.64542877 510.53624132 236.64542877 510.53624132 241.61328125 511.74609375 C245.42362886 512.52559307 247.15154415 514.01434657 250.0625 516.5625 C251.01640625 517.37460937 251.9703125 518.18671875 252.953125 519.0234375 C254.30664062 520.18746094 254.30664062 520.18746094 255.6875 521.375 C259.7134581 524.69134678 263.37112532 527.34946028 268.25 529.25 C272.72918309 531.07683406 274.82527504 533.67251686 277.78125 537.40234375 C281.1015423 540.83830197 285.33124058 542.55185722 289.6875 544.375 C288.3675 544.705 287.0475 545.035 285.6875 545.375 C286.8425 545.684375 287.9975 545.99375 289.1875 546.3125 C298.32709606 549.77813166 304.28128764 560.10390994 308.6875 568.375 C310 572.0625 310 572.0625 309.6875 575.375 C307.98445153 578.30930649 305.87387262 580.79205382 303.6875 583.375 C302.30268571 585.34553634 301.0003218 587.35527416 299.6875 589.375 C288.16184819 588.78963415 288.16184819 588.78963415 283.6875 585.375 C274.16031556 578.60509482 263.79506367 573.11400925 253.46484375 567.6796875 C247.65037225 564.61767805 242.4057864 561.14990268 237.1484375 557.203125 C235.13786417 555.70955624 233.11782311 554.33233942 231 553 C230.236875 552.46375 229.47375 551.9275 228.6875 551.375 C228.6875 550.715 228.6875 550.055 228.6875 549.375 C228.0275 549.375 227.3675 549.375 226.6875 549.375 C226.6875 548.715 226.6875 548.055 226.6875 547.375 C226.0275 547.375 225.3675 547.375 224.6875 547.375 C223.64510439 546.18157548 222.65340275 544.94363796 221.6875 543.6875 C217.06690727 538.21268005 211.38985582 535.60911861 204.6875 533.375 C204.831875 534.21160156 204.97625 535.04820312 205.125 535.91015625 C208.67386293 558.16448421 206.54785387 578.23145272 193.375 596.875 C191.38671875 599.53125 191.38671875 599.53125 189.6875 601.375 C189.0275 601.375 188.3675 601.375 187.6875 601.375 C187.3575 602.365 187.0275 603.355 186.6875 604.375 C186.0275 604.375 185.3675 604.375 184.6875 604.375 C184.6875 605.035 184.6875 605.695 184.6875 606.375 C184.0275 606.375 183.3675 606.375 182.6875 606.375 C182.6875 607.035 182.6875 607.695 182.6875 608.375 C182.0275 608.375 181.3675 608.375 180.6875 608.375 C180.6875 609.035 180.6875 609.695 180.6875 610.375 C178.8515625 611.85546875 178.8515625 611.85546875 176.3125 613.5625 C175.40242188 614.18253906 174.49234375 614.80257812 173.5546875 615.44140625 C172.60851563 616.07949219 171.66234375 616.71757813 170.6875 617.375 C168.93431961 618.57871423 167.18418367 619.78687775 165.4375 621 C164.60863281 621.57363281 163.77976562 622.14726563 162.92578125 622.73828125 C161.01978182 624.13202254 159.3415011 625.57502927 157.625 627.1875 C153.76749137 630.06011281 150.38076642 630.70229848 145.6875 631.375 C144.9759375 631.48585938 144.264375 631.59671875 143.53125 631.7109375 C133.46756235 633.06005505 124.22161231 632.56001969 114.34765625 630.20703125 C110.70029516 629.37790861 107.07116747 628.81656582 103.375 628.25 C85.87598343 625.27210105 67.95181583 617.79516562 52.6875 608.8125 C46.69029741 605.30470608 46.69029741 605.30470608 40.1875 602.9375 C33.32106741 601.02282168 27.41271104 596.32934279 21.48193359 592.50976562 C18.70104233 590.75118296 15.8259135 589.1941233 12.9296875 587.63671875 C10.09713035 586.04278851 7.37241656 584.29894788 4.625 582.5625 C-1.52664027 578.74374548 -7.86524158 575.51032493 -14.36328125 572.328125 C-21.01362227 569.06563213 -27.62144954 565.63796546 -33.9375 561.765625 C-36.00694639 560.55390968 -37.8658594 559.70322976 -40.125 558.9375 C-42.85604084 557.95959484 -45.37880385 556.86427268 -47.9375 555.5 C-57.02889894 550.8564479 -66.81147013 548.04106968 -76.765625 545.953125 C-79.3125 545.375 -79.3125 545.375 -81.3125 544.375 C-82.22257813 544.3028125 -83.13265625 544.230625 -84.0703125 544.15625 C-90.01336418 543.65984661 -94.49263444 543.09366668 -98.75 538.6875 C-112.36201434 520.56686488 -111.77551399 496.2562352 -111.3125 474.6875 C-110.71201403 449.42016887 -110.71201403 449.42016887 -117.75 425.375 C-118.37138018 423.96496994 -118.9924758 422.55481444 -119.61328125 421.14453125 C-119.90799316 420.49436035 -120.20270508 419.84418945 -120.50634766 419.17431641 C-121.5561179 416.83124958 -122.50316348 414.45363877 -123.4375 412.0625 C-123.74300781 411.30195312 -124.04851562 410.54140625 -124.36328125 409.7578125 C-125.06054468 408.00748044 -125.74337313 406.25138031 -126.41796875 404.4921875 C-128.96349927 398.05010055 -131.98031708 392.39503601 -135.859375 386.65234375 C-137.3125 384.375 -137.3125 384.375 -138.3125 381.375 C-138.9725 381.375 -139.6325 381.375 -140.3125 381.375 C-142.81733074 377.25414943 -144.52508341 374.1740969 -145.3125 369.375 C-146.61574219 369.79072266 -146.61574219 369.79072266 -147.9453125 370.21484375 C-149.09773437 370.57707031 -150.25015625 370.93929688 -151.4375 371.3125 C-152.57445312 371.67214844 -153.71140625 372.03179688 -154.8828125 372.40234375 C-167.07407209 375.85977386 -178.58839989 375.13888237 -190.3125 370.375 C-191.70599379 369.59464348 -193.08284716 368.78348873 -194.4375 367.9375 C-201.07312726 363.89352338 -209.11125046 362.62792992 -216.59765625 360.86816406 C-218.3125 360.375 -218.3125 360.375 -219.3125 359.375 C-219.35330783 357.37541636 -219.35504356 355.37454746 -219.3125 353.375 C-214.71551878 352.3059346 -212.59076606 352.60510391 -208.3125 354.375 C-205.94220191 354.97715425 -203.56663691 355.55877535 -201.1875 356.125 C-195.09844643 357.64707659 -189.98065708 359.82980485 -184.58203125 363.10546875 C-180.27711663 365.51355352 -176.46097584 365.53576159 -171.5625 365.5625 C-170.39203125 365.57667969 -169.2215625 365.59085938 -168.015625 365.60546875 C-156.92237189 364.91506587 -142.80488951 360.62585944 -134.7890625 352.75390625 C-126.92769631 345.41247168 -113.61876871 343.9737797 -103.3125 343.375 C-102.09046875 343.29572266 -102.09046875 343.29572266 -100.84375 343.21484375 C-92.73770196 342.9406686 -85.18423012 344.58144124 -77.3125 346.375 C-75.72695313 346.69984375 -75.72695313 346.69984375 -74.109375 347.03125 C-66.54754335 348.69406115 -60.06227804 351.61314983 -53.3125 355.375 C-51.90291016 356.1484375 -51.90291016 356.1484375 -50.46484375 356.9375 C-49.39943359 357.6490625 -49.39943359 357.6490625 -48.3125 358.375 C-48.3125 359.035 -48.3125 359.695 -48.3125 360.375 C-47.69375 360.684375 -47.075 360.99375 -46.4375 361.3125 C-45.0625 362 -43.6875 362.6875 -42.3125 363.375 C-42.3125 364.035 -42.3125 364.695 -42.3125 365.375 C-41.44625 365.7771875 -41.44625 365.7771875 -40.5625 366.1875 C-38.25699957 367.40429189 -36.29193808 368.67833879 -34.3125 370.375 C-34.3125 371.035 -34.3125 371.695 -34.3125 372.375 C-33.72637939 372.65263184 -33.14025879 372.93026367 -32.53637695 373.21630859 C-30.43366341 374.31187106 -28.63272524 375.50492646 -26.73046875 376.9140625 C-9.78409592 389.29112538 5.49204181 398.84218077 27.375 395.875 C41.25510219 394.0224764 51.79547197 396.12803728 63.71484375 403.32421875 C67.50499032 405.34312851 71.00145389 405.49609836 75.27026367 405.66577148 C81.29682413 405.90694575 86.73383827 406.36736966 92.3828125 408.609375 C97.30585582 410.24482668 102.55922515 410.70126992 107.6875 411.375 C107.6875 412.035 107.6875 412.695 107.6875 413.375 C108.6775 413.375 109.6675 413.375 110.6875 413.375 C111.375 415.6875 111.375 415.6875 111.6875 418.375 C110.625 420.25 110.625 420.25 108.6875 421.375 C103.25271739 420.94021739 103.25271739 420.94021739 101.6875 419.375 C98.42906471 418.83419972 95.16067118 418.40893882 91.88671875 417.97265625 C88.6875 417.375 88.6875 417.375 86.75 416.3359375 C83.61849369 414.87694024 80.39484825 415.0343382 77 414.9375 C69.06245168 414.54948145 63.13090094 413.02592001 56.01171875 409.62109375 C47.62970972 405.66917339 41.15992405 403.23717129 31.6875 404.375 C30.97335937 404.4575 30.25921875 404.54 29.5234375 404.625 C27.57787411 404.87303995 25.63268481 405.12400841 23.6875 405.375 C14.50610687 406.12173068 5.65248092 404.12223526 -3.3125 402.375 C-2.81545946 406.71167868 -1.97585631 409.30556324 0.6875 412.75 C3.57853338 416.90672503 4.66129683 420.31778913 4.6875 425.375 C4.70167969 426.42042969 4.71585938 427.46585938 4.73046875 428.54296875 C4.74773338 431.48831458 4.73167469 434.43002095 4.6875 437.375 C6.234375 437.2821875 6.234375 437.2821875 7.8125 437.1875 C11.92218973 437.38635595 14.17632496 438.31967803 17.6875 440.375 C17.6875 439.715 17.6875 439.055 17.6875 438.375 C23.70031337 436.37072888 31.07464595 436.32802242 36.9375 438.875 C37.845 439.37 38.7525 439.865 39.6875 440.375 C39.6875 441.035 39.6875 441.695 39.6875 442.375 C40.80125 441.715 41.915 441.055 43.0625 440.375 C47.86762301 437.96388845 52.39121257 437.60037293 57.6875 438.375 C58.326875 438.7153125 58.96625 439.055625 59.625 439.40625 C62.37126567 440.69616266 64.42519361 440.42948976 67.4375 440.25 C73.39101918 440.12627161 76.64413123 441.29294131 81.6875 444.375 C82.3475 444.705 83.0075 445.035 83.6875 445.375 C85.56714825 444.6008547 87.41750728 443.75497096 89.25 442.875 C96.00159433 439.94445186 100.32961826 440.20581222 107.25 442.0625 C110.27389136 442.45017838 112.67453717 441.66714004 115.578125 440.859375 C120.07678181 439.8263501 124.46384068 440.16720879 129 440.9375 C132.33421226 441.33308451 134.60300445 441.15626727 137.875 440.6875 C143.56095681 440.04012769 147.54240569 441.51596561 152.81640625 443.51171875 C158.06694834 445.09045318 162.60160132 444.07029956 167.6875 442.375 C169.62311978 442.28003453 171.56205816 442.24512467 173.5 442.25 C175.11068359 442.25193359 175.11068359 442.25193359 176.75390625 442.25390625 C179.6875 442.375 179.6875 442.375 182.9375 443.1875 C187.36683981 443.48950044 190.18306359 440.85336269 193.6875 438.375 C195.6875 437.375 195.6875 437.375 198.8125 437.5625 C203.58170849 437.33173185 206.62588861 435.73811936 210.6875 433.375 C210.07896251 425.95084258 208.97966006 418.66342829 207.70385742 411.32885742 C205.50402076 398.15021887 205.50402076 398.15021887 208.6875 393.375 C210.0075 393.375 211.3275 393.375 212.6875 393.375 C212.6875 392.715 212.6875 392.055 212.6875 391.375 C220.90715318 390.18771676 220.90715318 390.18771676 224.8125 391.125 C228.66383798 391.45989896 230.20759127 390.15966914 233.1796875 387.84375 C234.88099085 386.34747855 234.88099085 386.34747855 236 383.75 C238.77088731 379.85023267 243.18352152 379.41437965 247.6875 378.375 C247.6875 377.715 247.6875 377.055 247.6875 376.375 C248.3475 376.375 249.0075 376.375 249.6875 376.375 C249.914375 375.694375 250.14125 375.01375 250.375 374.3125 C251.68559463 371.3792644 253.35454287 369.0428911 255.25 366.46484375 C261.00157026 358.10318589 263.70938224 351.14094907 263.93359375 340.98046875 C263.96646484 339.77712891 263.99933594 338.57378906 264.03320312 337.33398438 C264.09411373 334.83146567 264.15143981 332.32885701 264.20507812 329.82617188 C264.39508416 323.11143023 264.60170814 316.793337 266.6875 310.375 C268.76342773 309.14135742 268.76342773 309.14135742 270.6875 308.375 C270.6875 306.725 270.6875 305.075 270.6875 303.375 C270.06875 303.065625 269.45 302.75625 268.8125 302.4375 C267.4375 301.75 266.0625 301.0625 264.6875 300.375 C264.6875 299.715 264.6875 299.055 264.6875 298.375 C264.0275 298.375 263.3675 298.375 262.6875 298.375 C259.82183342 292.63583715 259.03918168 287.5479291 258.5625 281.1875 C258.4166282 279.4229631 258.26828224 277.65862859 258.1171875 275.89453125 C258.05772949 275.12214111 257.99827148 274.34975098 257.93701172 273.55395508 C257.69264452 271.41992646 257.22067158 269.45226025 256.6875 267.375 C256.46024522 263.04379122 256.58420619 258.70932876 256.6875 254.375 C256.70538574 253.58834961 256.72327148 252.80169922 256.74169922 251.99121094 C257.22387286 233.75308108 257.22387286 233.75308108 260.1640625 225.56640625 C261.18845307 221.27772635 259.48596536 217.61171141 257.8125 213.6875 C256.37224947 210.21850948 255.21780466 206.81538489 254.25 203.1875 C252.89739744 198.41581873 250.69922574 195.28210366 247.6875 191.375 C247.6875 190.715 247.6875 190.055 247.6875 189.375 C247.0275 189.375 246.3675 189.375 245.6875 189.375 C245.43097656 188.73433594 245.17445313 188.09367188 244.91015625 187.43359375 C242.16512467 181.23185574 239.36043333 177.75948919 233.67578125 174.04296875 C231.29608587 172.04664277 230.61645221 170.30095109 229.6875 167.375 C229.0275 167.375 228.3675 167.375 227.6875 167.375 C226.49207522 165.69374988 225.38037157 163.95251917 224.3125 162.1875 C222.53133056 159.25680931 220.79947926 156.51132257 218.62109375 153.859375 C216.59933582 151.26172238 215.43228893 148.82459204 214.125 145.8125 C211.08199676 139.50913614 207.05337607 135.05579153 202.2578125 130.08203125 C194.6875 122.10904255 194.6875 122.10904255 194.6875 118.375 C194.0275 118.375 193.3675 118.375 192.6875 118.375 C190.42352857 115.28090571 188.55181936 112.12749945 186.75 108.75 C184.94328703 105.32611406 184.94328703 105.32611406 182.1875 103.5 C177.22143761 99.27884697 175.33917207 92.72880271 174.6875 86.375 C173.82125 86.2821875 173.82125 86.2821875 172.9375 86.1875 C169.80373724 85.05586345 168.73902607 82.96957708 166.6875 80.375 C164.69341923 79.03283025 162.69448975 77.6977887 160.6875 76.375 C160.6875 75.715 160.6875 75.055 160.6875 74.375 C160.0275 74.375 159.3675 74.375 158.6875 74.375 C158.6875 73.715 158.6875 73.055 158.6875 72.375 C158.0275 72.375 157.3675 72.375 156.6875 72.375 C156.6875 71.715 156.6875 71.055 156.6875 70.375 C156.06875 70.065625 155.45 69.75625 154.8125 69.4375 C153.4375 68.75 152.0625 68.0625 150.6875 67.375 C150.6875 66.715 150.6875 66.055 150.6875 65.375 C150.00945312 65.13136719 149.33140625 64.88773438 148.6328125 64.63671875 C145.08382155 63.11639504 141.8489868 61.1956753 138.5625 59.1875 C137.90233887 58.7867627 137.24217773 58.38602539 136.56201172 57.97314453 C134.60067289 56.7788522 132.64356375 55.57790782 130.6875 54.375 C129.66140625 53.74722656 128.6353125 53.11945312 127.578125 52.47265625 C108.56680545 40.63085975 108.56680545 40.63085975 105.9765625 33.38671875 C104.05671459 30.39059247 101.83487132 29.99039199 98.5 28.875 C97.88576172 28.66560791 97.27152344 28.45621582 96.63867188 28.24047852 C90.8645838 26.31894491 84.98512873 24.84976879 79.0625 23.46484375 C75.6875 22.375 75.6875 22.375 72.65234375 20.28125 C69.19324272 18.05721666 67.31649388 17.94228975 63.25 17.9375 C57.87384294 17.70693259 53.55377826 16.843207 48.5 15 C20.94752484 5.15831254 -18.58346938 4.35667319 -46.3125 13.375 C-54.6811605 15.97062732 -62.52781505 18.0904257 -71.3125 18.375 C-72.35148438 18.41496094 -73.39046875 18.45492188 -74.4609375 18.49609375 C-79.78996949 18.60368703 -84.76452347 18.39461629 -90 17.375 C-121.09268301 11.885699 -153.79085097 21.68961924 -181.4765625 35.1328125 C-184.41356897 36.41926988 -187.2775829 37.24328389 -190.375 38.0625 C-203.59543003 41.89031308 -216.44856417 50.04718164 -227.3125 58.375 C-228.39013929 59.17643477 -229.46830365 59.97716379 -230.546875 60.77734375 C-236.07276184 64.91549015 -241.37830646 69.07008862 -246.04296875 74.1953125 C-247.3125 75.375 -247.3125 75.375 -249.3125 75.375 C-249.3125 76.035 -249.3125 76.695 -249.3125 77.375 C-249.9725 77.375 -250.6325 77.375 -251.3125 77.375 C-251.580625 77.93703125 -251.84875 78.4990625 -252.125 79.078125 C-253.3928979 81.53050646 -254.80222342 83.81427683 -256.3125 86.125 C-256.828125 86.92421875 -257.34375 87.7234375 -257.875 88.546875 C-258.349375 89.15015625 -258.82375 89.7534375 -259.3125 90.375 C-259.9725 90.375 -260.6325 90.375 -261.3125 90.375 C-261.57893311 90.93477539 -261.84536621 91.49455078 -262.11987305 92.07128906 C-263.41104791 94.56535785 -264.86846652 96.87671231 -266.39453125 99.234375 C-273.50207867 110.40828258 -279.18608494 120.46762162 -282.3125 133.375 C-282.8075 134.365 -282.8075 134.365 -283.3125 135.375 C-283.66613766 137.84972069 -283.97473552 140.31326417 -284.25 142.796875 C-284.33499756 143.53448059 -284.41999512 144.27208618 -284.50756836 145.03204346 C-284.77944337 147.39597043 -285.04624601 149.76043387 -285.3125 152.125 C-285.57952286 154.47518676 -285.84764334 156.82523893 -286.11743164 159.17510986 C-286.28507156 160.63743052 -286.45101367 162.09994713 -286.61499023 163.56268311 C-286.95389497 166.53681225 -287.33144786 169.48246281 -287.85131836 172.4309082 C-288.37643819 175.78316869 -288.52647365 179.04206148 -288.62890625 182.43359375 C-288.64968735 183.0998024 -288.67046844 183.76601105 -288.69187927 184.45240784 C-288.73491923 185.86005968 -288.77598689 187.26777306 -288.81518555 188.67553711 C-288.87396161 190.7754021 -288.9393574 192.87497647 -289.00585938 194.97460938 C-289.13244555 199.10764952 -289.22793821 203.24090939 -289.3125 207.375 C-289.3281601 208.04678284 -289.34382019 208.71856567 -289.35995483 209.41070557 C-289.52588922 217.14421074 -289.39934071 224.36051748 -287.5 231.875 C-287.33435547 232.6071875 -287.16871094 233.339375 -286.99804688 234.09375 C-286.1720618 237.58470579 -285.21787473 240.58160236 -283.71484375 243.86328125 C-282.03979908 248.05789172 -281.79732633 251.59492197 -281.6875 256.0625 C-281.6445078 261.18199611 -281.6445078 261.18199611 -280.80761719 266.19238281 C-280.12414333 269.20532969 -280.18257145 272.07206308 -280.1796875 275.16015625 C-280.17825241 276.14465004 -280.17825241 276.14465004 -280.17678833 277.14903259 C-280.17610909 278.53840226 -280.17794553 279.92777514 -280.18212891 281.31713867 C-280.18742062 283.4061633 -280.18220671 285.49496694 -280.17578125 287.58398438 C-280.17257922 294.40298089 -280.37451347 301.12995437 -281.08105469 307.91870117 C-282.71813571 325.29282789 -281.70688791 344.86002005 -274.75 361 C-273.57440267 363.76009808 -272.93734497 365.91691667 -272.375 368.8125 C-269.71676402 381.30198967 -261.03768267 390.04668968 -250.66015625 397.0078125 C-248.17534848 398.55146156 -248.17534848 398.55146156 -244.625 399.6875 C-233.44538408 405.38277603 -225.97021136 425.22912845 -221.17700195 436.46411133 C-218.49681426 442.38837822 -213.90536595 445.0569685 -208.68359375 448.55078125 C-206.44355791 450.27416961 -205.34086018 451.53854844 -203.9375 453.9375 C-200.73303919 459.12567464 -194.6969899 461.03055703 -189.3125 463.375 C-189.3125 462.715 -189.3125 462.055 -189.3125 461.375 C-188.8484375 460.9315625 -188.384375 460.488125 -187.90625 460.03125 C-186.00026923 458.05052488 -185.54878472 456.50458828 -184.8125 453.875 C-183.85945652 450.47127329 -183.04163999 448.64338557 -180.3125 446.375 C-176.51895198 444.66213213 -172.59691756 443.31561327 -168.67260742 441.93115234 C-166.77582147 441.25914818 -164.88683632 440.56525582 -162.99804688 439.87109375 C-147.27482576 434.2610085 -147.27482576 434.2610085 -139.25 436.0625 C-137.3125 437.375 -137.3125 437.375 -136.5 439.5 C-136.438125 440.11875 -136.37625 440.7375 -136.3125 441.375 C-139.42582284 443.68488469 -141.31971849 444.37563989 -145.234375 444.72265625 C-151.34940371 445.32790223 -156.8726229 447.29412784 -162.625 449.375 C-163.69556641 449.72433594 -164.76613281 450.07367187 -165.86914062 450.43359375 C-171.61575913 452.42722206 -171.61575913 452.42722206 -175.86083984 456.5546875 C-176.86010888 458.80708145 -177.60100233 461.01897069 -178.3125 463.375 C-179.97735954 467.20742977 -179.97735954 467.20742977 -182.3125 468.375 C-182.6425 469.365 -182.9725 470.355 -183.3125 471.375 C-187.14506851 473.29128425 -191.26696093 472.34320793 -195.3125 471.375 C-199.82118217 469.30666065 -204.05759444 466.92927716 -208.3125 464.375 C-208.3125 463.715 -208.3125 463.055 -208.3125 462.375 C-208.9725 462.375 -209.6325 462.375 -210.3125 462.375 C-210.828125 461.50875 -211.34375 460.6425 -211.875 459.75 C-213.73760945 456.76702397 -215.78170452 455.23881344 -218.75 453.375 C-226.36871702 448.50748635 -229.03519984 443.13283507 -232.64453125 435.0234375 C-240.64268037 416.63029426 -240.64268037 416.63029426 -255.734375 404.62890625 C-266.74194361 399.27522515 -275.11794032 389.52754591 -279.25 378.125 C-280.35793332 374.67809632 -281.35845739 371.21319529 -282.34765625 367.73046875 C-283.30479848 364.40178382 -284.39012511 361.14723679 -285.53125 357.87890625 C-287.48066745 351.63102333 -288.7320883 345.49225258 -289.4375 339 C-289.52169189 338.22760986 -289.60588379 337.45521973 -289.69262695 336.65942383 C-290.24543916 331.12290032 -290.49399352 325.62570213 -290.5 320.0625 C-290.50080566 319.3833252 -290.50161133 318.70415039 -290.50244141 318.00439453 C-290.45684691 313.73978944 -290.1710334 309.52659142 -289.80859375 305.27734375 C-289.21597855 297.92966206 -289.16489822 290.61818069 -289.1875 283.25 C-289.18363281 281.950625 -289.17976562 280.65125 -289.17578125 279.3125 C-289.17707031 278.07242187 -289.17835938 276.83234375 -289.1796875 275.5546875 C-289.18081543 274.43819824 -289.18194336 273.32170898 -289.18310547 272.17138672 C-289.18932123 269.2911377 -289.18932123 269.2911377 -290.3125 266.375 C-290.5085663 262.90753124 -290.65639039 259.44632826 -290.7421875 255.97460938 C-290.93931374 251.33803603 -291.77115658 247.66557206 -293.52832031 243.37866211 C-298.53304448 230.5910621 -298.86193303 216.85520381 -298.40673828 203.33203125 C-298.30992324 200.29414591 -298.26012457 197.2578079 -298.21484375 194.21875 C-297.89649871 178.75525853 -296.08430028 163.70337404 -293.75292969 148.42480469 C-293.39128721 145.92057088 -293.08769158 143.43237315 -292.8515625 140.9140625 C-290.61994199 118.05235019 -279.05578688 97.58090183 -264.3125 80.375 C-263.22458685 78.92008 -262.14130315 77.46168772 -261.0625 76 C-249.34522166 61.05850414 -233.90484903 49.46302671 -217.3125 40.375 C-216.71679199 40.0351709 -216.12108398 39.6953418 -215.50732422 39.34521484 C-206.62062274 34.28158572 -198.08849271 30.28544556 -188.19140625 27.640625 C-184.17073467 26.46639538 -180.60450729 24.57470272 -176.89038086 22.66357422 C-161.71112651 15.07610339 -145.98012346 11.87109306 -129.2644043 9.78515625 C-126.37112216 9.38314533 -123.52912298 8.85579432 -120.6640625 8.2890625 C-115.52870986 7.32748284 -110.59108477 7.06722691 -105.375 7.125 C-104.50746094 7.12886719 -103.63992188 7.13273437 -102.74609375 7.13671875 C-97.03581146 7.21342403 -91.64263352 7.81374989 -86.03515625 8.92578125 C-81.12655757 9.73566482 -76.26798015 9.56789788 -71.3125 9.375 C-70.46558594 9.36855469 -69.61867188 9.36210937 -68.74609375 9.35546875 C-63.55326036 9.14141302 -59.10277146 8.04881354 -54.25013733 6.29214478 C-47.19797864 3.75456916 -40.59679494 1.85423228 -33.109375 1.20703125 C-31.82659416 1.08870438 -31.82659416 1.08870438 -30.51789856 0.96798706 C-20.35574325 0.10471155 -10.19339658 -0.02039068 0 0 Z M-135.5859375 364.04296875 C-137.11217603 365.22045142 -138.70859071 366.30572714 -140.3125 367.375 C-138.9925 367.705 -137.6725 368.035 -136.3125 368.375 C-136.27125 369.220625 -136.23 370.06625 -136.1875 370.9375 C-135.3335808 374.29218256 -134.88858381 375.13896623 -132.6875 377.5625 C-124.4876158 386.64094322 -120.43017679 396.7475386 -116.30078125 408.08203125 C-114.15122177 413.93729239 -111.57084807 419.53708355 -108.85546875 425.1484375 C-103.63913624 438.07773807 -103.79189871 451.98619631 -103.625 465.6875 C-103.59171771 467.55796487 -103.55721864 469.42840849 -103.52148438 471.29882812 C-103.38386506 478.9092138 -103.29467673 486.5151795 -103.33750916 494.12689209 C-103.18194133 508.11110137 -100.18085169 523.84750268 -90.3125 534.375 C-87.01474985 535.81094088 -83.86417183 536.03306886 -80.3125 536.375 C-78.92310357 536.78764029 -77.5467143 537.24677944 -76.1875 537.75 C-72.04429128 539.21403135 -67.83296768 540.23779311 -63.5625 541.25 C-54.932179 543.33454046 -46.30964774 545.88032518 -38.625 550.4375 C-35.20892888 552.43557934 -31.84019122 553.80134981 -28.1328125 555.15234375 C-24.93610313 556.53817482 -21.98488384 558.20604272 -18.95361328 559.91870117 C-16.0185044 561.53710794 -13.04495558 563.06019028 -10.0546875 564.57421875 C1.13663126 570.25049322 12.0929314 575.91165422 22.390625 583.12109375 C31.05816493 589.04665126 40.48667824 594.5658757 50.375 598.125 C54.12388129 599.58259155 57.15744234 601.30842637 60.4375 603.625 C68.26980594 608.80945251 77.23257325 611.47717705 86.06542969 614.47900391 C88.34712073 615.2586879 90.61631615 616.06420889 92.8828125 616.88671875 C101.73296407 620.01527552 110.44458429 621.87340667 119.6875 623.375 C120.73808594 623.56191406 121.78867188 623.74882813 122.87109375 623.94140625 C131.666125 625.29542632 144.38068297 625.56080764 152.1015625 620.92578125 C152.62492187 620.41402344 153.14828125 619.90226562 153.6875 619.375 C153.6875 618.715 153.6875 618.055 153.6875 617.375 C154.3475 617.375 155.0075 617.375 155.6875 617.375 C155.6875 616.715 155.6875 616.055 155.6875 615.375 C156.2546875 615.09527344 156.821875 614.81554688 157.40625 614.52734375 C164.40195623 610.99355379 170.46350237 606.96541874 176.25 601.6875 C176.77464844 601.2119165 177.29929687 600.73633301 177.83984375 600.24633789 C180.26177575 597.9777789 181.62125589 596.57373233 182.6875 593.375 C183.3475 593.375 184.0075 593.375 184.6875 593.375 C186.25140832 591.27972515 187.67094001 589.20641453 189.0625 587 C189.66868164 586.04468384 189.66868164 586.04468384 190.28710938 585.07006836 C199.74730632 569.83140833 199.37736796 555.02120801 197.90625 537.53125 C197.69383988 534.46647537 197.67252045 531.44580709 197.6875 528.375 C194.04128539 526.39643098 190.39338374 524.42101274 186.74389648 522.44848633 C185.50286961 521.77714834 184.2623054 521.10495434 183.0222168 520.43188477 C181.23868092 519.46404691 179.4534986 518.49930941 177.66796875 517.53515625 C176.59442139 516.95386963 175.52087402 516.37258301 174.41479492 515.77368164 C170.46046529 513.74572045 168.35537008 513.31976533 164.0625 514.0625 C159.99492057 514.55840228 157.74338169 514.22025836 154.125 512.3125 C149.86449372 510.12955509 147.29161358 510.27424269 142.74609375 511.58984375 C140.46479146 512.41478851 140.46479146 512.41478851 137.5625 514 C134.00958587 515.6992198 131.58140993 515.81581999 127.6875 515.375 C125.9375 514.125 125.9375 514.125 124.6875 512.375 C124.130625 511.653125 123.57375 510.93125 123 510.1875 C122.566875 509.589375 122.13375 508.99125 121.6875 508.375 C117.61619507 509.62914589 117.61619507 509.62914589 113.8125 511.5 C109.14738026 513.42093166 104.63582137 512.68039163 100 511.1875 C96.75687343 509.98515405 96.75687343 509.98515405 94.4375 511.6875 C93.53 512.244375 92.6225 512.80125 91.6875 513.375 C88.03323948 513.94516831 84.37944504 514.18749316 80.6875 514.375 C80.39875 513.405625 80.11 512.43625 79.8125 511.4375 C79.04535318 508.26835797 79.04535318 508.26835797 76.6875 507.375 C75.635625 507.87 74.58375 508.365 73.5 508.875 C69.5752173 510.63664568 66.86087334 510.73937206 62.6875 509.375 C60.8125 506.375 60.8125 506.375 59.6875 503.375 C59.3575 503.045 59.0275 502.715 58.6875 502.375 C57.2248656 502.46829561 55.76629001 502.62676342 54.3125 502.8125 C39.31604564 504.3831473 39.31604564 504.3831473 35.8828125 502.2578125 C34.5 500.875 34.5 500.875 32.6875 498.375 C32.04683594 498.60316406 31.40617187 498.83132813 30.74609375 499.06640625 C25.38828172 500.84702038 21.26364117 502.09073574 15.6875 500.375 C14.841875 499.529375 13.99625 498.68375 13.125 497.8125 C10.80664972 495.61287925 9.75552255 495.37897696 6.48046875 495.1875 C4.01291154 495.27159141 1.54546166 495.35888739 -0.921875 495.44921875 C-4.86934155 495.36281107 -6.95655279 494.52949249 -10.25390625 492.515625 C-12.86803821 491.06718756 -15.52364002 490.2631863 -18.375 489.375 C-23.14517635 487.8552978 -27.05171257 485.96852278 -31.3125 483.375 C-31.9725 483.375 -32.6325 483.375 -33.3125 483.375 C-33.3125 482.715 -33.3125 482.055 -33.3125 481.375 C-33.9725 481.375 -34.6325 481.375 -35.3125 481.375 C-35.58191406 480.81167969 -35.85132813 480.24835938 -36.12890625 479.66796875 C-37.80721759 476.41658672 -39.80605241 473.38123907 -41.77734375 470.30078125 C-45.61014831 462.99602141 -46.97782542 455.66621539 -47.625 447.5 C-47.70911133 446.45295898 -47.79322266 445.40591797 -47.87988281 444.32714844 C-48.51692163 434.38877158 -48.1307863 424.55325811 -47.5625 414.625 C-47.51993073 413.85271057 -47.47736145 413.08042114 -47.4335022 412.284729 C-47.30638377 410.06905091 -47.16455856 407.85493453 -47.015625 405.640625 C-46.88655762 403.71911621 -46.88655762 403.71911621 -46.75488281 401.75878906 C-46.34017511 398.58668708 -45.59579154 396.27709425 -44.3125 393.375 C-42.67000718 387.26077944 -40.72586336 379.59102696 -43.6171875 373.73046875 C-45.70896951 371.60088345 -47.81959428 370.01465565 -50.3125 368.375 C-51.10914063 367.76527344 -51.90578125 367.15554688 -52.7265625 366.52734375 C-61.46321196 359.9956582 -70.47555695 355.84378649 -81.125 353.5625 C-82.09058838 353.35238281 -83.05617676 353.14226562 -84.05102539 352.92578125 C-103.25437574 348.95589659 -120.09338008 351.96132418 -135.5859375 364.04296875 Z M-36.3125 381.375 C-36.34988281 382.12523437 -36.38726563 382.87546875 -36.42578125 383.6484375 C-36.82390635 389.84669888 -37.73967009 395.24860216 -39.68359375 401.13671875 C-40.56006271 404.25607721 -40.43184163 407.15277608 -40.3125 410.375 C-40.47977832 411.73181302 -40.66808462 413.08616376 -40.875 414.4375 C-41.2810582 418.09202377 -41.11353985 420.81482291 -40.3125 424.375 C-26.49955761 419.15754804 -26.49955761 419.15754804 -16.3125 409.375 C-16.08220044 407.00376754 -15.90130058 404.62758057 -15.75 402.25 C-15.66621094 400.96867187 -15.58242188 399.68734375 -15.49609375 398.3671875 C-15.40521484 396.88605469 -15.40521484 396.88605469 -15.3125 395.375 C-16.00214844 394.95089844 -16.69179688 394.52679687 -17.40234375 394.08984375 C-23.06908274 390.55299019 -28.44004567 386.86426463 -33.6328125 382.66015625 C-35.09237654 381.27372404 -35.09237654 381.27372404 -36.3125 381.375 Z M-11.3125 414.375 C-11.81587891 414.74262451 -12.31925781 415.11024902 -12.83789062 415.48901367 C-15.16073351 417.18297506 -17.48659039 418.87275218 -19.8125 420.5625 C-20.60398437 421.14064453 -21.39546875 421.71878906 -22.2109375 422.31445312 C-28.34131948 426.76149251 -34.49014554 431.05314522 -41.3125 434.375 C-40.6918884 452.81845117 -40.6918884 452.81845117 -33.3125 469.375 C-32.6525 470.365 -31.9925 471.355 -31.3125 472.375 C-30.6525 472.375 -29.9925 472.375 -29.3125 472.375 C-29.11269531 472.95894531 -28.91289063 473.54289062 -28.70703125 474.14453125 C-26.72536496 477.31408714 -24.29075311 478.3444511 -21 480.0625 C-19.30423828 480.96548828 -19.30423828 480.96548828 -17.57421875 481.88671875 C-14.71410464 483.19175285 -12.42398117 484.05008427 -9.3125 484.375 C-6.33623434 482.88686717 -5.64751879 481.42647152 -4.3125 478.375 C-4.38310407 476.04506557 -4.68033566 473.85302767 -5.0859375 471.55859375 C-5.33022793 469.20413941 -4.9445705 467.63569012 -4.3125 465.375 C-4.333125 464.364375 -4.35375 463.35375 -4.375 462.3125 C-4.32245739 459.00231582 -3.96776519 456.33717414 -3.3125 453.125 C-1.38376256 443.08462214 -0.16185362 427.50158394 -5.3125 418.375 C-8.32533733 416.05998196 -8.32533733 416.05998196 -11.3125 414.375 Z M209.5625 443.375 C206.73298457 445.03605157 205.851013 445.38128896 202.4375 445.25 C198.23831167 445.38997294 197.26908415 446.17304996 193.875 448.4375 C187.80097095 452.0616425 182.75429246 451.62809768 175.96948242 450.85961914 C171.51106723 450.36219065 168.83837012 450.39357419 164.6875 452.375 C158.85734377 453.25773492 154.00674613 452.27000262 148.5 450.3125 C142.06606223 448.13743357 136.77242244 448.38046861 130.078125 449.08984375 C127.18465478 449.3331886 124.9501402 449.27297443 122.125 448.75 C117.92718772 448.29205684 116.38559345 449.48821763 112.6875 451.375 C108.53576865 451.94940767 104.94605463 452.30992629 101.5 449.75 C100.901875 449.29625 100.30375 448.8425 99.6875 448.375 C96.79685018 448.94720726 96.79685018 448.94720726 93.6875 450.375 C84.53418192 454.18278032 84.53418192 454.18278032 79.6875 453.375 C78.41560182 452.55379618 77.16730269 451.69549833 75.9375 450.8125 C71.71263328 447.90942459 68.87757092 448.29611525 63.9609375 449.10546875 C61.05471289 449.45002115 59.20074376 448.83430283 56.6875 447.375 C56.1925 446.88 56.1925 446.88 55.6875 446.375 C52.4399464 446.00385102 50.88763949 446.26329424 48 447.875 C43.5034137 449.91119002 39.54605813 449.63425113 34.6875 449.375 C34.6875 448.715 34.6875 448.055 34.6875 447.375 C31.38195468 445.4074135 29.39142348 444.33359274 25.5 444.5625 C22.51615516 445.27113222 22.51615516 445.27113222 19.6875 447.375 C12.62207944 447.93574766 12.62207944 447.93574766 9.1875 445.875 C8.6925 445.38 8.1975 444.885 7.6875 444.375 C6.6975 445.035 5.7075 445.695 4.6875 446.375 C4.32219768 449.50057959 4.32219768 449.50057959 4.5 453 C4.52707031 454.18851563 4.55414062 455.37703125 4.58203125 456.6015625 C4.61683594 457.51679687 4.65164063 458.43203125 4.6875 459.375 C7.3275 460.365 9.9675 461.355 12.6875 462.375 C12.790625 461.09625 12.89375 459.8175 13 458.5 C13.17578125 456.3203125 13.17578125 456.3203125 13.6875 454.375 C17.1227048 452.08486347 18.672831 452.19657027 22.6875 452.375 C22.3575 455.675 22.0275 458.975 21.6875 462.375 C24.100625 462.9009375 24.100625 462.9009375 26.5625 463.4375 C27.46742188 463.63472656 28.37234375 463.83195312 29.3046875 464.03515625 C31.69764125 464.60702157 31.69764125 464.60702157 33.6875 463.375 C33.914375 462.26125 34.14125 461.1475 34.375 460 C35.6875 456.375 35.6875 456.375 38.9375 454.5 C42.2093594 453.51844218 45.30083524 452.7880079 48.6875 452.375 C48.6875 454.685 48.6875 456.995 48.6875 459.375 C47.90375 459.519375 47.12 459.66375 46.3125 459.8125 C43.72328982 460.25298925 43.72328982 460.25298925 41.6875 461.375 C42.05069949 464.0081963 42.54255024 465.21931322 44.375 467.1875 C48.1633681 469.13287821 51.09898485 467.84726126 55 466.6875 C57.02285099 465.43164021 57.02285099 465.43164021 57.0625 462.5 C57.6875 459.375 57.6875 459.375 60.5 457 C63.6875 455.375 63.6875 455.375 67.6875 455.375 C67.6875 457.685 67.6875 459.995 67.6875 462.375 C66.6975 462.705 65.7075 463.035 64.6875 463.375 C64.6875 464.365 64.6875 465.355 64.6875 466.375 C69.06705966 469.09032699 72.43297039 470.99967646 77.6875 471.375 C79.05747745 470.21754513 79.05747745 470.21754513 79 467.0625 C79.75180462 463.03009342 80.39106546 461.7295961 83.6875 459.375 C85.0075 459.375 86.3275 459.375 87.6875 459.375 C87.76848342 462.93827058 87.54737464 465.93550142 86.6875 469.375 C87.1825 470.365 87.1825 470.365 87.6875 471.375 C90.97269475 472.47006492 93.42413415 472.47460608 96.875 472.4375 C97.96167969 472.42847656 99.04835938 472.41945313 100.16796875 472.41015625 C100.99941406 472.39855469 101.83085938 472.38695312 102.6875 472.375 C103.6775 469.735 104.6675 467.095 105.6875 464.375 C107.3375 464.375 108.9875 464.375 110.6875 464.375 C110.78804687 465.53902344 110.78804687 465.53902344 110.890625 466.7265625 C111.42484015 469.52421173 111.42484015 469.52421173 113.796875 470.7734375 C114.66828125 471.09570312 115.5396875 471.41796875 116.4375 471.75 C117.29859375 472.08773438 118.1596875 472.42546875 119.046875 472.7734375 C122.03281911 473.45366737 123.77654442 473.2714201 126.6875 472.375 C130.00210705 470.66607501 130.00210705 470.66607501 130.375 467.25 C130.478125 466.30125 130.58125 465.3525 130.6875 464.375 C134.4375 463.25 134.4375 463.25 136.6875 464.375 C137.74102843 466.68465848 138.74469096 469.0179774 139.6875 471.375 C141.47956547 471.23415204 143.27114917 471.08716299 145.0625 470.9375 C146.06023437 470.85628906 147.05796875 470.77507812 148.0859375 470.69140625 C150.66677613 470.52534374 150.66677613 470.52534374 152.6875 469.375 C153.34522428 466.34565509 153.34522428 466.34565509 153.6875 463.375 C155.9975 463.375 158.3075 463.375 160.6875 463.375 C160.6875 464.365 160.6875 465.355 160.6875 466.375 C162.0075 466.705 163.3275 467.035 164.6875 467.375 C164.6875 465.725 164.6875 464.075 164.6875 462.375 C166.9975 462.375 169.3075 462.375 171.6875 462.375 C171.790625 463.32375 171.89375 464.2725 172 465.25 C172.37289295 468.66607501 172.37289295 468.66607501 175.6875 470.375 C179.76240752 470.71457563 181.21751271 470.68832486 184.6875 468.375 C185.41132467 466.31574861 185.41132467 466.31574861 185.6875 464.375 C187.9375 463.6875 187.9375 463.6875 190.6875 463.375 C191.285625 463.82875 191.88375 464.2825 192.5 464.75 C195.67081366 467.10546158 198.7543699 467.75891111 202.6875 467.375 C206.79000568 464.36649584 208.52918159 460.88784758 210.6875 456.375 C211.20699219 455.94832031 211.72648437 455.52164062 212.26171875 455.08203125 C214.39228783 452.53118552 213.98005416 450.44417902 213.875 447.1875 C213.84792969 446.10082031 213.82085938 445.01414062 213.79296875 443.89453125 C213.75816406 443.06308594 213.72335937 442.23164062 213.6875 441.375 C212.20951098 441.28515772 212.20951098 441.28515772 209.5625 443.375 Z M213.6875 467.375 C212.883125 468.179375 212.07875 468.98375 211.25 469.8125 C208.54942875 472.51307125 207.15940193 473.29017853 203.3828125 473.5078125 C194.83815334 473.48184089 194.83815334 473.48184089 190.6875 472.375 C190.3575 473.365 190.0275 474.355 189.6875 475.375 C187.62109375 476.10546875 187.62109375 476.10546875 185.125 476.5625 C184.29871094 476.72105469 183.47242188 476.87960937 182.62109375 477.04296875 C181.98300781 477.15253906 181.34492187 477.26210938 180.6875 477.375 C184.48837259 480.63910814 188.49518481 482.99094827 192.9375 485.25 C198.77932513 488.28486281 204.3250598 491.53845742 209.6875 495.375 C211.80141258 492.59851781 213.80862393 489.77465121 215.75 486.875 C216.25660156 486.1221875 216.76320313 485.369375 217.28515625 484.59375 C219.8481287 480.85150824 219.8481287 480.85150824 220.5625 476.5625 C219.25691726 473.29854314 217.48740039 470.39418775 215.6875 467.375 C215.0275 467.375 214.3675 467.375 213.6875 467.375 Z M2.6875 469.375 C1.39445714 473.25412857 1.75784027 476.63088528 1.9453125 480.68359375 C1.64656328 483.80235458 0.75850343 485.0817161 -1.3125 487.375 C-0.9825 487.705 -0.6525 488.035 -0.3125 488.375 C1.709184 488.28890773 3.72994366 488.18078114 5.75 488.0625 C10.69804662 487.97625954 13.2097077 488.18379434 16.875 491.5625 C18.64533033 493.28736714 18.64533033 493.28736714 20.6875 494.375 C23.44664513 494.03339156 25.71042466 493.20271196 28.30078125 492.20703125 C31.81069859 490.98344304 34.16655438 491.29163212 37.6875 492.375 C38.615625 493.261875 39.54375 494.14875 40.5 495.0625 C43.34106037 497.64249916 43.34106037 497.64249916 45.96875 497.22265625 C47.68192458 496.8181567 49.38912713 496.38763122 51.08984375 495.93359375 C56.36928366 494.79831569 61.54264751 496.02534139 66.6875 497.375 C67.1825 499.85 67.1825 499.85 67.6875 502.375 C68.698125 502.045 69.70875 501.715 70.75 501.375 C74.48053118 500.32318695 77.79841385 500.00104941 81.6875 500.375 C84.30343153 502.20615207 84.65739455 503.28468366 85.6875 506.375 C88.1886748 505.92836164 89.51506946 505.52895584 91.4375 503.8125 C94.74537014 501.69913852 97.85977089 501.74893251 101.6875 502.375 C103.04372245 503.34373032 104.38167053 504.33934215 105.6875 505.375 C109.22425342 505.2739499 111.88926301 503.78398886 115 502.25 C119.79117549 500.0743744 122.62983975 499.8053813 127.6875 501.375 C129.6875 504.4375 129.6875 504.4375 130.6875 507.375 C134.08918535 506.75870887 137.23623645 505.87834475 140.5 504.75 C145.41625831 503.24293272 148.67031207 503.354555 153.6875 504.375 C155.1725 504.6534375 155.1725 504.6534375 156.6875 504.9375 C157.3475 505.081875 158.0075 505.22625 158.6875 505.375 C156.33472731 502.65073689 154.06253669 501.5608237 150.6875 500.375 C150.6875 499.715 150.6875 499.055 150.6875 498.375 C150.0275 498.375 149.3675 498.375 148.6875 498.375 C148.6875 497.715 148.6875 497.055 148.6875 496.375 C146.97809971 494.77271617 145.15448472 493.36205258 143.31640625 491.91015625 C141.6875 490.375 141.6875 490.375 140.6875 487.375 C140.0275 487.375 139.3675 487.375 138.6875 487.375 C137.6975 485.395 137.6975 485.395 136.6875 483.375 C136.0275 484.035 135.3675 484.695 134.6875 485.375 C134.6875 486.4475 134.6875 487.52 134.6875 488.625 C134.6875 492.3678001 134.03678506 494.91745702 132.6875 498.375 C130.3775 498.375 128.0675 498.375 125.6875 498.375 C126.6875 489.375 126.6875 489.375 127.6875 480.375 C126.5325 480.41625 125.3775 480.4575 124.1875 480.5 C119.74268699 480.51587433 115.95025869 479.59293105 111.6875 478.375 C107.34507571 482.71742429 106.9430331 486.51051546 106.6875 492.375 C104.3775 492.375 102.0675 492.375 99.6875 492.375 C99.6875 488.415 99.6875 484.455 99.6875 480.375 C95.3975 480.045 91.1075 479.715 86.6875 479.375 C84.55163322 482.57880017 84.45617825 483.39439967 84.5625 487.0625 C84.58054687 487.87074219 84.59859375 488.67898438 84.6171875 489.51171875 C84.64039063 490.12660156 84.66359375 490.74148438 84.6875 491.375 C82.7075 491.375 80.7275 491.375 78.6875 491.375 C76.30452128 482.52393617 76.30452128 482.52393617 77.6875 478.375 C74.7175 478.045 71.7475 477.715 68.6875 477.375 C68.6875 478.365 68.6875 479.355 68.6875 480.375 C67.6975 480.705 66.7075 481.035 65.6875 481.375 C64.95426204 483.39008358 64.95426204 483.39008358 64.6875 485.375 C62.3775 485.375 60.0675 485.375 57.6875 485.375 C58.4375 478.75 58.4375 478.75 60.6875 475.375 C60.1925 474.385 60.1925 474.385 59.6875 473.375 C59.03523438 473.50777344 58.38296875 473.64054687 57.7109375 473.77734375 C53.0466713 474.71982822 48.38881546 475.63268703 43.6875 476.375 C44.1825 479.84 44.1825 479.84 44.6875 483.375 C38.28368442 482.89169316 38.28368442 482.89169316 35.8125 480.75 C34.34977332 477.66202146 34.01276393 474.75774486 33.6875 471.375 C30.0575 470.715 26.4275 470.055 22.6875 469.375 C21.0584322 474.16637588 20.48172572 477.43132546 21.6875 482.375 C19.0475 482.045 16.4075 481.715 13.6875 481.375 C13.6875 477.70833333 13.6875 474.04166667 13.6875 470.375 C9.8327389 468.24823526 6.88427678 467.83618185 2.6875 469.375 Z M158.6875 473.375 C158.13578125 473.85582031 157.5840625 474.33664062 157.015625 474.83203125 C154.32606507 476.61454161 152.62928582 476.85251409 149.4375 477.0625 C148.54546875 477.12824219 147.6534375 477.19398438 146.734375 477.26171875 C146.05890625 477.29910156 145.3834375 477.33648438 144.6875 477.375 C144.6875 478.695 144.6875 480.015 144.6875 481.375 C145.6775 481.705 146.6675 482.035 147.6875 482.375 C147.77128906 483.1278125 147.85507813 483.880625 147.94140625 484.65625 C148.85998348 488.00352618 149.87477835 488.80645722 152.625 490.875 C153.52347656 491.55433594 154.42195313 492.23367188 155.34765625 492.93359375 C156.4606836 493.74774306 157.57399223 494.56150788 158.6875 495.375 C160.10289679 496.42834215 161.51825901 497.48173073 162.93359375 498.53515625 C174.40354726 507.00703019 185.93646718 514.19245397 198.88525391 520.17382812 C204.70509489 522.87371413 210.43172344 525.73028379 216.125 528.6875 C216.94814697 529.10813721 217.77129395 529.52877441 218.61938477 529.9621582 C219.38307373 530.36265381 220.1467627 530.76314941 220.93359375 531.17578125 C221.61091553 531.52809814 222.2882373 531.88041504 222.98608398 532.2434082 C224.6875 533.375 224.6875 533.375 226.6875 536.375 C227.3475 536.375 228.0075 536.375 228.6875 536.375 C228.6875 537.035 228.6875 537.695 228.6875 538.375 C229.3475 538.375 230.0075 538.375 230.6875 538.375 C230.94789063 538.96667969 231.20828125 539.55835938 231.4765625 540.16796875 C232.7644653 542.51527546 234.05974178 543.92524768 236.0625 545.6875 C236.94035156 546.48607422 236.94035156 546.48607422 237.8359375 547.30078125 C239.65916633 548.61590474 239.65916633 548.61590474 241.9140625 548.04296875 C242.49929688 547.82253906 243.08453125 547.60210938 243.6875 547.375 C242.06410195 545.66615995 240.39430947 544.00053283 238.6875 542.375 C238.0275 542.375 237.3675 542.375 236.6875 542.375 C236.6875 541.715 236.6875 541.055 236.6875 540.375 C235.04398543 539.01323078 233.37227344 537.68537934 231.6875 536.375 C230.00773923 534.72153113 228.34356253 533.05220376 226.6875 531.375 C225.58709371 530.28398885 224.48546302 529.19421168 223.3828125 528.10546875 C216.35535043 521.14143143 209.42566363 514.22450958 203.375 506.375 C202.5396875 505.385 202.5396875 505.385 201.6875 504.375 C201.0275 504.375 200.3675 504.375 199.6875 504.375 C199.48833984 502.83199219 199.48833984 502.83199219 199.28515625 501.2578125 C197.95114471 496.61970064 194.855967 495.06752842 190.84179688 492.73828125 C189.94525391 492.24714844 189.04871094 491.75601562 188.125 491.25 C187.25552734 490.75113281 186.38605469 490.25226563 185.49023438 489.73828125 C182.90196251 488.25982021 180.29848176 486.812914 177.6875 485.375 C167.74876376 479.87695508 167.74876376 479.87695508 164.25 477.6875 C163.61191406 477.29175781 162.97382812 476.89601563 162.31640625 476.48828125 C160.6875 475.375 160.6875 475.375 158.6875 473.375 Z M217.6875 510.375 C218.62340504 511.4805189 219.56129858 512.58435453 220.5 513.6875 C221.02207031 514.30238281 221.54414062 514.91726563 222.08203125 515.55078125 C224.28757905 518.05904567 224.28757905 518.05904567 226.6875 520.375 C227.3475 520.375 228.0075 520.375 228.6875 520.375 C228.6875 521.035 228.6875 521.695 228.6875 522.375 C230.20469983 523.90957367 230.20469983 523.90957367 232.1875 525.5 C235.16852017 528.01998366 237.93112527 530.61353876 240.625 533.4375 C244.56087476 537.45162277 248.90417117 540.45185461 253.6875 543.375 C254.3475 543.045 255.0075 542.715 255.6875 542.375 C255.130625 541.818125 254.57375 541.26125 254 540.6875 C253.236875 539.924375 252.47375 539.16125 251.6875 538.375 C250.883125 537.653125 250.07875 536.93125 249.25 536.1875 C246.95568815 533.66935284 245.97240884 531.997965 244.5625 529 C241.4070127 523.04401772 236.38634162 520.62192802 230.6875 517.375 C228.6611353 516.07105609 226.64007797 514.75881919 224.625 513.4375 C221.40170515 511.10630912 221.40170515 511.10630912 217.6875 510.375 Z M255.6875 543.375 C256.6875 545.375 256.6875 545.375 256.6875 545.375 Z M263.6875 543.375 C265.47525656 547.63023305 268.26556681 549.68593161 271.8125 552.49609375 C273.6875 554.375 273.6875 554.375 274.52783203 556.84106445 C275.95666839 559.96314709 277.00834405 560.46139031 280.1171875 561.796875 C280.99503906 562.18230469 281.87289062 562.56773437 282.77734375 562.96484375 C284.15599609 563.53912109 284.15599609 563.53912109 285.5625 564.125 C286.47386719 564.52332031 287.38523437 564.92164063 288.32421875 565.33203125 C292.08110296 566.9546972 295.68451461 568.47933918 299.6875 569.375 C299.11 568.694375 298.5325 568.01375 297.9375 567.3125 C296.22803275 565.08069554 295.02420251 563.19958932 293.75 560.75 C291.14686222 556.49031999 288.80142547 555.18804826 284.25 553.4375 C281.08948176 552.12704122 278.50352437 550.31101675 275.6875 548.375 C272.423536 546.08898308 272.423536 546.08898308 268.6875 545.375 C267.01004318 544.73596883 265.34188613 544.07158363 263.6875 543.375 Z M243.6875 547.375 C244.0175 548.035 244.3475 548.695 244.6875 549.375 C245.3475 549.045 246.0075 548.715 246.6875 548.375 C245.6975 548.045 244.7075 547.715 243.6875 547.375 Z M246.6875 549.375 C247.99945945 553.5803619 249.28361934 555.19205787 253.125 557.3125 C254.0221875 557.81910156 254.919375 558.32570313 255.84375 558.84765625 C257.69423151 559.8415275 259.5482407 560.82886758 261.40625 561.80859375 C269.98998491 566.3594532 277.80721032 571.48031641 284.6875 578.375 C288.83161313 580.93501062 288.83161313 580.93501062 293.5625 581.0625 C294.614375 580.7221875 294.614375 580.7221875 295.6875 580.375 C295.6875 579.055 295.6875 577.735 295.6875 576.375 C294.29471983 575.72260842 292.89810788 575.07839448 291.5 574.4375 C290.72269531 574.07785156 289.94539063 573.71820312 289.14453125 573.34765625 C286.7225488 572.29858979 286.7225488 572.29858979 284.1640625 571.90234375 C281.40956626 571.31581853 279.63427497 570.36258923 277.25 568.875 C275.96802734 568.08222656 275.96802734 568.08222656 274.66015625 567.2734375 C272.43216603 565.85056858 270.21161157 564.41861552 267.99609375 562.9765625 C267.05044556 562.36264648 267.05044556 562.36264648 266.08569336 561.73632812 C264.83192583 560.91972635 263.58135524 560.09819254 262.33422852 559.27148438 C259.26869592 557.08202671 259.26869592 557.08202671 255.6875 556.375 C254.02083333 554.70833333 252.35416667 553.04166667 250.6875 551.375 C248.52129456 550.07980005 248.52129456 550.07980005 246.6875 549.375 Z " fill="#FEFEFE" transform="translate(1023.3125,465.625)"/>
<path d="M0 0 C0.125 2.875 0.125 2.875 0 6 C-0.66 6.66 -1.32 7.32 -2 8 C-1.62089182 13.71082115 0.90610057 17.75827204 3.72265625 22.609375 C6.85421367 30.92188828 4.7690278 38.13001207 1.375 46 C1.01325684 46.86850586 0.65151367 47.73701172 0.27880859 48.63183594 C-5.10190053 61.28255478 -5.10190053 61.28255478 -9 66 C-9.66 66 -10.32 66 -11 66 C-11.25136719 66.55042969 -11.50273438 67.10085938 -11.76171875 67.66796875 C-13.22185273 70.41781098 -14.96091835 72.80950148 -16.8125 75.3125 C-17.52664063 76.29347656 -18.24078125 77.27445313 -18.9765625 78.28515625 C-20.1041222 79.79800179 -21.25016079 81.29898896 -22.4609375 82.74609375 C-30.42916542 92.51605473 -32.02377657 107.06731423 -34.03710938 119.07958984 C-35.50473035 127.25320874 -37.8745105 133.80347665 -43.75 139.8125 C-51.12248445 144.77474915 -57.25824389 146.61615603 -66.125 146.3125 C-66.97964844 146.30283203 -67.83429688 146.29316406 -68.71484375 146.28320312 C-72.54515957 146.2155401 -76.12696501 145.9793666 -79.91796875 145.36328125 C-84.13876374 144.86577309 -85.69248212 146.50098649 -89 149 C-94.62646515 150.89937996 -101.55586531 150.83100579 -107.125 148.9375 C-114.42699732 146.55641392 -120.48042238 149.53244736 -127.0390625 152.73828125 C-131.22800304 154.52327834 -135.50263455 155.32746347 -139.9453125 156.2578125 C-143.43106374 157.10473416 -146.3982509 158.411988 -149.62109375 159.94921875 C-156.38061384 162.93495094 -165.58751848 166.9818093 -173 165 C-185.32432432 159.67567568 -185.32432432 159.67567568 -188 157 C-191.49356468 156.79560943 -194.98021022 156.65381851 -198.47851562 156.5703125 C-204.27974846 156.32880411 -208.60630185 155.31149034 -212.93359375 151.1328125 C-217.02778347 145.66680336 -217.02778347 145.66680336 -216.875 142 C-216.441875 141.01 -216.441875 141.01 -216 140 C-213.8125 139.25 -213.8125 139.25 -211 139 C-208.2490755 140.76845147 -206.41812485 142.16836197 -204.9375 145.11328125 C-201.32307249 148.63297578 -195.84822179 147.51010555 -191.046875 147.48828125 C-185.66262308 147.58053479 -182.98724294 148.05649281 -179 152 C-174.59528721 154.92768335 -170.81347745 156.72845018 -165.3984375 155.6796875 C-158.25605863 153.65562574 -151.17101047 151.28174083 -144.625 147.75 C-141.48985142 146.07659791 -138.81150857 145.68121118 -135.24609375 145.41015625 C-132.35150267 144.88157875 -129.98238878 143.73144673 -127.3125 142.5 C-118.80300518 138.77911823 -110.77350394 137.81733581 -102 141 C-97.69243578 141.4699161 -95.74696875 141.53591387 -92.1796875 138.9765625 C-85.64034576 135.07978996 -76.96568605 136.86339444 -69.66992188 137.15625 C-62.20863968 137.34076393 -57.28515787 137.18008107 -51 133 C-43.6249491 125.78883912 -42.42571158 116.66898488 -40.6875 106.9375 C-37.78376563 91.78542632 -33.74224843 78.53717481 -23 67 C-22.34 67 -21.68 67 -21 67 C-20.67 65.68 -20.34 64.36 -20 63 C-19.34 63 -18.68 63 -18 63 C-17.62294922 62.21109375 -17.62294922 62.21109375 -17.23828125 61.40625 C-15.98782324 58.97633791 -14.62254939 56.63167392 -13.23168945 54.2800293 C-5.84456888 43.09589083 -5.84456888 43.09589083 -3.2265625 30.60546875 C-3.9705752 28.27123112 -4.90157912 26.1891064 -6 24 C-8.85604843 17.66439962 -11.18047327 12.05538676 -10 5 C-7.8236499 -0.31786416 -5.49114971 -0.11937282 0 0 Z " fill="#FFFFFF" transform="translate(1025,636)"/>
<path d="M0 0 C3.63034192 2.71467704 5.84866194 5.99511704 8.3828125 9.71875 C9.15963379 10.84579346 9.15963379 10.84579346 9.95214844 11.99560547 C11.53080522 14.30821622 13.08649745 16.63440901 14.6328125 18.96875 C15.10460938 19.67870117 15.57640625 20.38865234 16.0625 21.12011719 C17.35994463 23.09722031 18.6275637 25.08964861 19.8828125 27.09375 C20.2653418 27.68381836 20.64787109 28.27388672 21.04199219 28.88183594 C23.56212979 33.03334419 24.08885071 36.15634679 23.6328125 40.96875 C22.6328125 41.96875 22.6328125 41.96875 20.375 42.5234375 C17.6328125 41.96875 17.6328125 41.96875 16.39941406 40.53222656 C15.09462274 38.42645314 13.91476329 36.28426487 12.7578125 34.09375 C11.89143313 32.53065587 11.0216411 30.96944838 10.1484375 29.41015625 C9.72498047 28.64848145 9.30152344 27.88680664 8.86523438 27.10205078 C6.76654665 23.46925891 4.31468156 20.11513171 1.8125 16.75390625 C0.6328125 14.96875 0.6328125 14.96875 0.6328125 12.96875 C-0.0271875 12.96875 -0.6871875 12.96875 -1.3671875 12.96875 C-2.74951193 11.34248596 -4.08656265 9.6762498 -5.3671875 7.96875 C-9.57366572 8.93273459 -12.75906974 10.07978141 -16.3671875 12.46875 C-25.25892299 18.22122773 -34.84826242 17.65053925 -44.9921875 16.15625 C-54.22165843 15.25581381 -60.97859237 21.13862624 -67.9453125 26.515625 C-75.53079262 34.19898229 -79.18371418 44.01762326 -83.1796875 53.84375 C-83.76931784 55.27119072 -84.35980696 56.69827702 -84.95117188 58.125 C-93.28596959 78.30170743 -89.89839971 96.29458424 -83.1015625 116.6328125 C-82.3671875 118.96875 -82.3671875 118.96875 -82.3671875 120.96875 C-81.53695068 121.11123169 -81.53695068 121.11123169 -80.68994141 121.2565918 C-69.12350467 123.28462987 -59.26016709 125.37343027 -49.3671875 131.96875 C-46.69744156 132.24571829 -44.10547128 132.43303412 -41.4296875 132.53125 C-33.76331798 132.85556986 -33.76331798 132.85556986 -31.015625 133.640625 C-30.47164062 133.74890625 -29.92765625 133.8571875 -29.3671875 133.96875 C-28.5628125 133.205625 -27.7584375 132.4425 -26.9296875 131.65625 C-22.51842216 127.59743112 -16.1861424 126.90659828 -10.3671875 126.96875 C-8.41015625 128.125 -8.41015625 128.125 -7.3671875 129.96875 C-7.6796875 132.65625 -7.6796875 132.65625 -8.3671875 134.96875 C-9.21023438 135.06671875 -10.05328125 135.1646875 -10.921875 135.265625 C-12.56542969 135.48992187 -12.56542969 135.48992187 -14.2421875 135.71875 C-15.87800781 135.92757812 -15.87800781 135.92757812 -17.546875 136.140625 C-20.47447784 136.66900796 -20.47447784 136.66900796 -21.65234375 138.93359375 C-21.88824219 139.60519531 -22.12414063 140.27679687 -22.3671875 140.96875 C-23.9296875 142.78125 -23.9296875 142.78125 -26.3671875 143.96875 C-30.17921877 143.96195494 -33.93220054 143.68624348 -37.3671875 141.96875 C-39.80774612 141.78679119 -42.23583348 141.64074584 -44.6796875 141.53125 C-49.36257447 141.31568126 -53.11398442 141.00074451 -57.3671875 138.96875 C-57.3671875 138.30875 -57.3671875 137.64875 -57.3671875 136.96875 C-64.05213542 134.07193923 -70.9268736 132.13820568 -78.1171875 131.03125 C-82.7236954 130.21795411 -85.88597325 129.27590354 -89.3671875 125.96875 C-92.26090863 119.31473884 -93.84576672 112.3927475 -95.4921875 105.34375 C-95.75644531 104.23773437 -96.02070312 103.13171875 -96.29296875 101.9921875 C-103.01313764 73.61056053 -94.00644601 50.92188524 -80.3671875 25.96875 C-79.7071875 24.97875 -79.0471875 23.98875 -78.3671875 22.96875 C-77.7071875 22.96875 -77.0471875 22.96875 -76.3671875 22.96875 C-76.3671875 22.30875 -76.3671875 21.64875 -76.3671875 20.96875 C-66.18243652 12.04201395 -56.06574733 6.32352798 -42.3671875 6.96875 C-41.5628125 7.13375 -40.7584375 7.29875 -39.9296875 7.46875 C-29.99371929 9.4074755 -24.07802736 6.75286754 -15.58984375 1.81640625 C-10.51706198 -1.09198863 -5.59448804 -2.43720271 0 0 Z " fill="#FFFFFF" transform="translate(1127.3671875,674.03125)"/>
<path d="M0 0 C6.45195456 4.37562361 8.25804873 12.90434368 9.87109375 20.1015625 C10.29113013 24.17157022 10.22216387 28.0302816 9.87109375 32.1015625 C9.79117187 33.07996094 9.71125 34.05835938 9.62890625 35.06640625 C9.41128024 37.41742659 9.16137494 39.75857863 8.87109375 42.1015625 C6.56109375 42.1015625 4.25109375 42.1015625 1.87109375 42.1015625 C0.52625365 39.4118823 1.03178721 37.20946603 1.29174805 34.28613281 C1.92909704 27.08264235 2.2846304 21.67578123 -1.12890625 15.1015625 C-1.56203125 13.709375 -1.56203125 13.709375 -2.00390625 12.2890625 C-3.55098735 9.28084924 -5.01515706 8.37536899 -8.12890625 7.1015625 C-14.37463953 7.1015625 -20.47080004 10.58153973 -24.93359375 14.8125 C-26.43197794 16.51961433 -27.79747573 18.26231072 -29.12890625 20.1015625 C-30.05703125 21.308125 -30.05703125 21.308125 -31.00390625 22.5390625 C-33.40854395 28.01629281 -32.49660754 32.65877945 -30.44140625 38.0390625 C-28.65532568 42.17491574 -26.54275138 46.05409214 -24.2734375 49.94140625 C-23.16204325 52.03902064 -22.45359694 54.02687235 -21.75390625 56.2890625 C-20.37946924 60.21933462 -18.25293277 61.90464752 -15.03125 64.41796875 C-6.06991377 72.34884332 -1.14745675 84.39484572 -0.12890625 96.1015625 C-0.01696299 100.5551131 -0.03629158 105.00618538 -0.11425781 109.46020508 C-0.12811523 110.30349365 -0.14197266 111.14678223 -0.15625 112.015625 C-0.17421631 112.7782666 -0.19218262 113.5409082 -0.21069336 114.32666016 C-0.32745286 116.12761872 -0.32745286 116.12761872 0.87109375 117.1015625 C4.11319894 117.93943371 4.11319894 117.93943371 7.87109375 117.1015625 C12.17197507 113.1368222 15.91914627 107.9492399 16.87109375 102.1015625 C16.57074219 101.50859375 16.27039062 100.915625 15.9609375 100.3046875 C14.62049605 97.59497789 14.29321362 95.15282196 13.87109375 92.1640625 C13.30328134 88.15388736 12.39033437 84.84316336 10.87109375 81.1015625 C10.74609375 77.7890625 10.74609375 77.7890625 10.87109375 75.1015625 C13.12109375 74.3515625 13.12109375 74.3515625 15.87109375 74.1015625 C20.78941738 77.13935063 21.5784377 82.83091135 22.87109375 88.1015625 C23.42102906 90.49305751 23.95190363 92.88448823 24.44140625 95.2890625 C24.81822121 97.18650928 24.81822121 97.18650928 25.87109375 99.1015625 C26.65288181 109.06936031 22.1534224 114.35082093 16.125 121.74609375 C13.12426978 124.88203885 11.34035972 125.94594561 7.03125 126.40234375 C6.00902344 126.40621094 4.98679687 126.41007813 3.93359375 126.4140625 C2.91394531 126.43082031 1.89429688 126.44757813 0.84375 126.46484375 C-2.61511015 126.04214468 -4.40960849 125.2722715 -7.12890625 123.1015625 C-10.04281345 118.5447996 -9.2247084 113.23596142 -9.06640625 108.0390625 C-8.90210393 94.80649371 -10.72065434 84.72909279 -19.12890625 74.1015625 C-20.82927857 72.36456678 -22.5591879 70.65602783 -24.31640625 68.9765625 C-28.88139158 64.57657664 -30.95667005 60.95641788 -33.12890625 55.1015625 C-33.70400088 53.78283474 -34.28819215 52.46805547 -34.87890625 51.15625 C-35.35614136 50.09494873 -35.35614136 50.09494873 -35.84301758 49.01220703 C-36.47983598 47.59865225 -37.11765412 46.18554734 -37.7565918 44.77294922 C-41.29046493 36.78001331 -42.93135581 28.44240013 -40.0703125 19.96484375 C-35.12268681 9.2785086 -28.24008114 3.77831083 -17.51171875 -0.8515625 C-11.36725195 -2.7530834 -5.93031193 -2.50270045 0 0 Z " fill="#FFFFFF" transform="translate(1261.12890625,685.8984375)"/>
<path d="M0 0 C1.33901367 0.4630957 1.33901367 0.4630957 2.70507812 0.93554688 C10.27717443 3.64190184 10.27717443 3.64190184 12.6875 6.6875 C14.90342912 12.54020315 14.95384886 18.65004281 14.5625 24.8125 C14.51609375 25.62638184 14.4696875 26.44026367 14.421875 27.27880859 C13.05459553 46.32040447 13.05459553 46.32040447 8.6875 50.6875 C6.68791636 50.72830783 4.68704746 50.73004356 2.6875 50.6875 C1.11006345 46.241997 2.28893283 43.27067311 3.8984375 39.06640625 C5.75727695 33.46228136 5.89715974 27.84429476 5.9375 22 C5.958125 21.24138672 5.97875 20.48277344 6 19.70117188 C6.06098261 15.59102265 6.06098261 15.59102265 4.59765625 11.8359375 C1.80260397 10.15547662 -1.05219192 9.08971788 -4.125 8 C-5.92904297 7.34451172 -5.92904297 7.34451172 -7.76953125 6.67578125 C-11.19188253 5.72114523 -13.78754723 5.33243176 -17.3125 5.6875 C-19.64076348 8.01576348 -20.06383003 9.63572653 -21.0625 12.75 C-22.71614767 17.45890006 -24.74475479 21.28275108 -27.65234375 25.32421875 C-32.01318835 31.5320093 -35.7287232 38.10554814 -39.375 44.75 C-40.21964417 46.28277694 -41.06469085 47.81533214 -41.91015625 49.34765625 C-42.31282715 50.08072998 -42.71549805 50.81380371 -43.13037109 51.5690918 C-44.23732016 53.55277562 -45.3858687 55.50626304 -46.54296875 57.4609375 C-49.52447248 62.89741009 -51.17964961 69.47292782 -50.3125 75.6875 C-48.83256844 78.25088689 -48.83256844 78.25088689 -46.3125 79.6875 C-41.45868112 79.7930178 -39.43386514 77.98110931 -35.9375 74.83984375 C-33.01974669 72.77076388 -29.77909111 72.51090008 -26.3125 72.6875 C-24.96942544 73.07160887 -23.63538282 73.4887574 -22.3125 73.9375 C-19.65448489 74.74279963 -18.66764093 74.83635037 -16.06640625 73.74609375 C-13.65134891 72.23506857 -11.33286084 70.70786084 -9.3125 68.6875 C-6.97952567 68.64657063 -4.64544775 68.64508277 -2.3125 68.6875 C-1.75 71.8125 -1.75 71.8125 -2.3125 75.6875 C-8.43328813 81.2765833 -13.51581224 82.76207228 -21.5625 82.4375 C-22.31402344 82.39109375 -23.06554688 82.3446875 -23.83984375 82.296875 C-27.99621308 82.18081582 -30.4504222 82.37312229 -33.671875 85.140625 C-34.97898437 86.40132812 -34.97898437 86.40132812 -36.3125 87.6875 C-40.66008623 89.13669541 -44.76878677 89.20495876 -49.3125 88.6875 C-52.6875 86.9375 -52.6875 86.9375 -55.3125 84.6875 C-56.075625 84.089375 -56.83875 83.49125 -57.625 82.875 C-60.25100273 79.47092239 -60.53363219 75.82445233 -60.09399414 71.57592773 C-59.6963734 69.29942863 -59.21732404 67.06188264 -58.6875 64.8125 C-58.50219727 64.01094482 -58.31689453 63.20938965 -58.12597656 62.38354492 C-56.92881003 57.49777085 -55.5193291 53.27461967 -52.7890625 49.01171875 C-51.19803449 46.50732281 -49.8296009 43.91668575 -48.46240234 41.28491211 C-44.20864029 33.09859871 -39.42988633 25.3635795 -34.3125 17.6875 C-33.6525 17.6875 -32.9925 17.6875 -32.3125 17.6875 C-31.05127004 14.1740737 -30.14358358 10.79036173 -29.5 7.125 C-28.54817894 2.71539149 -27.00602545 0.4361701 -23.3125 -2.3125 C-15.29343196 -5.13001039 -7.61335643 -2.79250048 0 0 Z " fill="#FFFFFF" transform="translate(1234.3125,764.3125)"/>
<path d="M0 0 C0.66 0.33 1.32 0.66 2 1 C1.67 2.65 1.34 4.3 1 6 C0.34 5.67 -0.32 5.34 -1 5 C-0.67 3.35 -0.34 1.7 0 0 Z " fill="#FFFFFF" transform="translate(1050,917)"/>
<path d="M0 0 C0.33 0.99 0.66 1.98 1 3 C0.01 3 -0.98 3 -2 3 C-1.34 2.01 -0.68 1.02 0 0 Z " fill="#FFFFFF" transform="translate(1055,915)"/>
<path d="M0 0 C2 1 2 1 2 1 Z " fill="#FFFFFF" transform="translate(1323,1061)"/>
<path d="M0 0 C2 1 2 1 2 1 Z " fill="#FFFFFF" transform="translate(1325,1058)"/>
<path d="" fill="#FFFFFF" transform="translate(0,0)"/>
<path d="" fill="#FFFFFF" transform="translate(0,0)"/>
<path d="" fill="#FFFFFF" transform="translate(0,0)"/>
<path d="" fill="#FFFFFF" transform="translate(0,0)"/>
<path d="" fill="#FFFFFF" transform="translate(0,0)"/>
<path d="" fill="#FFFFFF" transform="translate(0,0)"/>
<path d="" fill="#FFFFFF" transform="translate(0,0)"/>
<path d="" fill="#FFFFFF" transform="translate(0,0)"/>
<path d="" fill="#FFFFFF" transform="translate(0,0)"/>
<path d="" fill="#FFFFFF" transform="translate(0,0)"/>
<path d="" fill="#FFFFFF" transform="translate(0,0)"/>
<path d="" fill="#FFFFFF" transform="translate(0,0)"/>
<path d="" fill="#FFFFFF" transform="translate(0,0)"/>
<path d="" fill="#FFFFFF" transform="translate(0,0)"/>
<path d="" fill="#FFFFFF" transform="translate(0,0)"/>
<path d="" fill="#FFFFFF" transform="translate(0,0)"/>
<path d="" fill="#FFFFFF" transform="translate(0,0)"/>
<path d="" fill="#FFFFFF" transform="translate(0,0)"/>
<path d="" fill="#FFFFFF" transform="translate(0,0)"/>
<path d="" fill="#FFFFFF" transform="translate(0,0)"/>
<path d="" fill="#FFFFFF" transform="translate(0,0)"/>
<path d="" fill="#FFFFFF" transform="translate(0,0)"/>
</svg>
